<svg width="50" height="33" viewBox="0 0 50 33" fill="none" xmlns="http://www.w3.org/2000/svg">
<path d="M5.94401 27.0252C6.1904 26.748 6.28536 26.44 6.2289 26.1012C6.17243 25.7625 6.0056 25.434 5.72842 25.1157C4.69156 23.9659 3.89594 22.6545 3.34158 21.1813C2.78722 19.7081 2.51004 18.1451 2.51004 16.4923C2.51004 14.8292 2.78722 13.2636 3.34158 11.7956C3.89594 10.3276 4.69156 9.01864 5.72842 7.86884C6.0056 7.5506 6.17243 7.22209 6.2289 6.88331C6.28536 6.54454 6.1904 6.23656 5.94401 5.95938C5.69763 5.67193 5.38709 5.53077 5.01237 5.5359C4.63767 5.54103 4.30146 5.70785 4.00374 6.03636C2.72049 7.42227 1.73239 9.01351 1.03943 10.8101C0.346478 12.6066 0 14.5007 0 16.4923C0 18.4839 0.346478 20.3754 1.03943 22.1668C1.73239 23.9582 2.72049 25.552 4.00374 26.9481C4.30146 27.2665 4.63767 27.4307 5.01237 27.4409C5.38709 27.4512 5.69763 27.3127 5.94401 27.0252ZM10.2557 22.6365C10.5021 22.3593 10.5919 22.0539 10.5252 21.7202C10.4585 21.3866 10.3019 21.0555 10.0555 20.727C9.59357 20.1521 9.24967 19.5028 9.02382 18.7791C8.79796 18.0553 8.68503 17.293 8.68503 16.4923C8.68503 15.6916 8.79796 14.9293 9.02382 14.2055C9.24967 13.4818 9.59357 12.8325 10.0555 12.2576C10.3019 11.9188 10.4585 11.5851 10.5252 11.2566C10.5919 10.9281 10.5021 10.6253 10.2557 10.3481C9.99909 10.0606 9.67314 9.91948 9.2779 9.92463C8.88265 9.92976 8.55158 10.1068 8.28467 10.4559C7.61737 11.2874 7.09894 12.2191 6.72936 13.2508C6.35979 14.2825 6.175 15.363 6.175 16.4923C6.175 17.6216 6.35979 18.702 6.72936 19.7337C7.09894 20.7655 7.61737 21.6972 8.28467 22.5287C8.55158 22.8777 8.88265 23.0548 9.2779 23.0599C9.67314 23.0651 9.99909 22.9239 10.2557 22.6365ZM43.3019 27.0252C43.5483 27.3127 43.8614 27.4512 44.2413 27.4409C44.6212 27.4307 44.96 27.2665 45.2577 26.9481C46.5306 25.552 47.5136 23.9582 48.2066 22.1668C48.8996 20.3754 49.246 18.4839 49.246 16.4923C49.246 14.5007 48.8996 12.6066 48.2066 10.8101C47.5136 9.01351 46.5306 7.42227 45.2577 6.03636C44.96 5.70785 44.6212 5.54103 44.2413 5.5359C43.8614 5.53077 43.5483 5.67193 43.3019 5.95938C43.0556 6.23656 42.9607 6.54454 43.0171 6.88331C43.0736 7.22209 43.2404 7.5506 43.5176 7.86884C44.5545 9.01864 45.35 10.3276 45.9044 11.7956C46.4588 13.2636 46.736 14.8292 46.736 16.4923C46.736 18.1451 46.4588 19.7081 45.9044 21.1813C45.35 22.6545 44.5545 23.9659 43.5176 25.1157C43.2404 25.434 43.0736 25.7625 43.0171 26.1012C42.9607 26.44 43.0556 26.748 43.3019 27.0252ZM38.9903 22.6365C39.2469 22.9239 39.5729 23.0651 39.9681 23.0599C40.3634 23.0548 40.6945 22.8777 40.9614 22.5287C41.6389 21.6972 42.1625 20.7655 42.5321 19.7337C42.9016 18.702 43.0864 17.6216 43.0864 16.4923C43.0864 15.363 42.9016 14.2825 42.5321 13.2508C42.1625 12.2191 41.6389 11.2874 40.9614 10.4559C40.6945 10.1068 40.3634 9.92976 39.9681 9.92463C39.5729 9.91948 39.2469 10.0606 38.9903 10.3481C38.7439 10.6253 38.6541 10.9281 38.7208 11.2566C38.7875 11.5851 38.944 11.9188 39.1904 12.2576C39.6524 12.8325 39.9989 13.4818 40.2299 14.2055C40.4608 14.9293 40.5763 15.6916 40.5763 16.4923C40.5763 17.293 40.4608 18.0553 40.2299 18.7791C39.9989 19.5028 39.6524 20.1521 39.1904 20.727C38.944 21.0555 38.7875 21.3866 38.7208 21.7202C38.6541 22.0539 38.7439 22.3593 38.9903 22.6365ZM13.7975 22.7442C13.7975 23.9351 14.0259 24.9617 14.4828 25.8242C14.9396 26.6865 15.6043 27.3589 16.4769 27.8413C16.8978 28.0672 17.2392 28.3367 17.5009 28.6497C17.7628 28.9629 17.9707 29.3761 18.1246 29.8895L18.6173 31.5371C18.9048 32.5123 19.5773 33 20.6346 33H27.7491C28.7962 33 29.4635 32.5123 29.7509 31.5371L30.2591 29.8895C30.413 29.3761 30.6209 28.9629 30.8827 28.6497C31.1445 28.3367 31.4858 28.0672 31.9068 27.8413C32.7794 27.3589 33.4441 26.6865 33.9009 25.8242C34.3577 24.9617 34.5862 23.9351 34.5862 22.7442V10.2865C34.5862 9.09563 34.3577 8.06903 33.9009 7.20669C33.4441 6.34435 32.7794 5.67193 31.9068 5.18943C31.4858 4.96357 31.1445 4.69409 30.8827 4.38098C30.6209 4.06787 30.413 3.65979 30.2591 3.15675L29.7509 1.49367C29.484 0.518397 28.8167 0.0307617 27.7491 0.0307617H20.6346C19.5773 0.0307617 18.9048 0.518397 18.6173 1.49367L18.1246 3.15675C17.9809 3.65979 17.7781 4.07043 17.5164 4.38867C17.2546 4.70692 16.9081 4.97384 16.4769 5.18943C15.6146 5.6514 14.9524 6.31612 14.4905 7.18359C14.0285 8.05107 13.7975 9.08537 13.7975 10.2865V22.7442ZM16.0458 22.421V10.6253C16.0458 9.47548 16.3615 8.57463 16.9928 7.92274C17.6242 7.27086 18.5045 6.94492 19.6338 6.94492H28.7499C29.8791 6.94492 30.7594 7.27086 31.3908 7.92274C32.0222 8.57463 32.3379 9.47548 32.3379 10.6253V22.421C32.3379 23.5604 32.0222 24.4561 31.3908 25.1081C30.7594 25.76 29.8791 26.0859 28.7499 26.0859H19.6338C18.5045 26.0859 17.6242 25.76 16.9928 25.1081C16.3615 24.4561 16.0458 23.5604 16.0458 22.421ZM34.2474 15.4298H34.8017C35.2021 15.4298 35.523 15.304 35.7642 15.0525C36.0055 14.801 36.1261 14.4545 36.1261 14.0131V11.9342C36.1261 11.4928 36.0055 11.1463 35.7642 10.8948C35.523 10.6432 35.2021 10.5175 34.8017 10.5175H34.2474V15.4298Z" fill="#00AA14"/>
</svg>
