<svg width="40" height="35" viewBox="0 0 40 35" fill="none" xmlns="http://www.w3.org/2000/svg">
<path d="M0.304688 13.3036C0.304688 15.7219 0.725387 18.0217 1.56679 20.203C2.40819 22.3844 3.60796 24.3166 5.1661 25.9994C5.5276 26.3983 5.93584 26.6009 6.39081 26.6071C6.84579 26.6134 7.22286 26.442 7.52202 26.0929C7.82119 25.7563 7.9365 25.3823 7.86794 24.9711C7.79937 24.5597 7.59681 24.1608 7.26025 23.7744C6.00127 22.3783 5.03522 20.7858 4.3621 18.9971C3.68899 17.2083 3.35243 15.3105 3.35243 13.3036C3.35243 11.2967 3.68899 9.39891 4.3621 7.61016C5.03522 5.82141 6.00127 4.22898 7.26025 2.83288C7.59681 2.44645 7.79937 2.04756 7.86794 1.63622C7.9365 1.22487 7.82119 0.850912 7.52202 0.514352C7.22286 0.165327 6.84579 -0.00606857 6.39081 0.000164016C5.93584 0.00639661 5.5276 0.208955 5.1661 0.60784C4.1315 1.7297 3.25271 2.96687 2.52972 4.31936C1.80674 5.67183 1.25516 7.10221 0.87497 8.61049C0.494782 10.1188 0.304688 11.6832 0.304688 13.3036ZM8.17645 13.3036C8.17645 14.6748 8.40082 15.9868 8.84956 17.2395C9.29831 18.4923 9.9278 19.6235 10.738 20.6332C11.0621 21.057 11.4641 21.272 11.944 21.2783C12.424 21.2844 12.8197 21.113 13.1314 20.764C13.4305 20.4274 13.5396 20.0597 13.4586 19.6608C13.3775 19.262 13.1874 18.8569 12.8883 18.4455C12.3273 17.7475 11.9098 16.959 11.6355 16.0802C11.3613 15.2014 11.2242 14.2759 11.2242 13.3036C11.2242 12.3313 11.3675 11.4089 11.6542 10.5364C11.9409 9.66379 12.3523 8.87225 12.8883 8.16174C13.1874 7.75039 13.3775 7.34528 13.4586 6.94639C13.5396 6.54751 13.4305 6.17978 13.1314 5.84321C12.8197 5.49419 12.424 5.3228 11.944 5.32903C11.4641 5.33526 11.0621 5.55028 10.738 5.97409C9.9278 6.98378 9.29831 8.11499 8.84956 9.36774C8.40082 10.6205 8.17645 11.9325 8.17645 13.3036ZM16.7961 13.3036C16.7961 13.9767 16.9737 14.5844 17.329 15.1267C17.6843 15.6689 18.1486 16.0709 18.722 16.3327V33.142C18.722 33.6156 18.856 34.002 19.124 34.3012C19.392 34.6004 19.7379 34.75 20.1617 34.75C20.598 34.75 20.9439 34.6035 21.1995 34.3105C21.455 34.0176 21.5828 33.6281 21.5828 33.142V16.3327C22.1436 16.0709 22.6048 15.6689 22.9663 15.1267C23.3278 14.5844 23.5085 13.9767 23.5085 13.3036C23.5085 12.6804 23.359 12.1132 23.0599 11.6021C22.7607 11.0911 22.3587 10.6828 21.8539 10.3774C21.3491 10.072 20.785 9.91933 20.1617 9.91933C19.526 9.91933 18.9557 10.072 18.4509 10.3774C17.946 10.6828 17.544 11.0911 17.2449 11.6021C16.9457 12.1132 16.7961 12.6804 16.7961 13.3036ZM27.1734 20.764C27.4849 21.113 27.8807 21.2844 28.3606 21.2783C28.8406 21.272 29.2426 21.057 29.5667 20.6332C30.377 19.6235 31.0064 18.4923 31.4551 17.2395C31.9039 15.9868 32.1283 14.6748 32.1283 13.3036C32.1283 11.9325 31.9039 10.6205 31.4551 9.36774C31.0064 8.11499 30.377 6.98378 29.5667 5.97409C29.2426 5.55028 28.8406 5.33526 28.3606 5.32903C27.8807 5.3228 27.4849 5.49419 27.1734 5.84321C26.8742 6.17978 26.7651 6.54751 26.8462 6.94639C26.9272 7.34528 27.1173 7.75039 27.4165 8.16174C27.9525 8.87225 28.3638 9.66379 28.6505 10.5364C28.9372 11.4089 29.0806 12.3313 29.0806 13.3036C29.0806 14.2759 28.9435 15.2014 28.6693 16.0802C28.395 16.959 27.9774 17.7475 27.4165 18.4455C27.1173 18.8569 26.9272 19.262 26.8462 19.6608C26.7651 20.0597 26.8742 20.4274 27.1734 20.764ZM32.7827 26.0929C33.0819 26.442 33.4621 26.6134 33.9233 26.6071C34.3845 26.6009 34.7896 26.3983 35.1387 25.9994C36.6968 24.3166 37.8966 22.3844 38.7379 20.203C39.5793 18.0217 40 15.7219 40 13.3036C40 11.6832 39.8099 10.1188 39.4298 8.61049C39.0496 7.10221 38.498 5.67183 37.775 4.31936C37.052 2.96687 36.1732 1.7297 35.1387 0.60784C34.7896 0.208955 34.3845 0.00639661 33.9233 0.000164016C33.4621 -0.00606857 33.0819 0.165327 32.7827 0.514352C32.4835 0.850912 32.3682 1.22487 32.4367 1.63622C32.5053 2.04756 32.7079 2.44645 33.0445 2.83288C34.3034 4.22898 35.2695 5.82141 35.9427 7.61016C36.6157 9.39891 36.9523 11.2967 36.9523 13.3036C36.9523 15.3105 36.6157 17.2083 35.9427 18.9971C35.2695 20.7858 34.3034 22.3783 33.0445 23.7744C32.7079 24.1608 32.5053 24.5597 32.4367 24.9711C32.3682 25.3823 32.4835 25.7563 32.7827 26.0929Z" fill="#00AA14"/>
</svg>
