<svg width="34" height="32" viewBox="0 0 34 32" fill="none" xmlns="http://www.w3.org/2000/svg">
<path d="M0 10.365C0 12.7918 0.640882 15.193 1.92265 17.5686C3.20442 19.9441 5.02453 22.257 7.38298 24.5072C9.74143 26.7574 12.5271 28.9079 15.7401 30.9587C15.9224 31.0727 16.1303 31.1781 16.3639 31.2749C16.5975 31.3718 16.7997 31.4202 16.9706 31.4202C17.1529 31.4202 17.3608 31.3718 17.5944 31.2749C17.828 31.1781 18.0359 31.0727 18.2183 30.9587C21.4312 28.9079 24.2141 26.7574 26.5668 24.5072C28.9196 22.257 30.7368 19.9441 32.0186 17.5686C33.3003 15.193 33.9412 12.7918 33.9412 10.365C33.9412 8.84965 33.6991 7.46249 33.2149 6.20351C32.7307 4.94453 32.0528 3.8536 31.1812 2.93072C30.3095 2.00786 29.2841 1.29577 28.1049 0.79445C26.9257 0.293137 25.641 0.0424805 24.251 0.0424805C22.6673 0.0424805 21.2517 0.389984 20.0042 1.08499C18.7565 1.77999 17.7453 2.70286 16.9706 3.85361C16.2072 2.70286 15.1989 1.77999 13.9456 1.08499C12.6923 0.389984 11.2739 0.0424805 9.69017 0.0424805C8.31155 0.0424805 7.03264 0.293137 5.85341 0.79445C4.67418 1.29577 3.64591 2.00786 2.76862 2.93072C1.89132 3.8536 1.21056 4.94453 0.726335 6.20351C0.242112 7.46249 0 8.84965 0 10.365ZM2.75154 10.365C2.75154 8.84965 3.05061 7.52515 3.64876 6.3915C4.24693 5.25785 5.06726 4.37485 6.10976 3.74252C7.15227 3.11018 8.33434 2.79401 9.65599 2.79401C10.727 2.79401 11.6555 2.98485 12.4417 3.36654C13.2278 3.74822 13.8944 4.2239 14.4412 4.79357C14.9881 5.36325 15.4439 5.93292 15.8085 6.50259C16.0477 6.8444 16.25 7.07512 16.4152 7.19475C16.5804 7.31438 16.7655 7.3742 16.9706 7.3742C17.1757 7.3742 17.358 7.31153 17.5176 7.18619C17.677 7.06087 17.8821 6.833 18.1327 6.50259C18.5202 5.9443 18.9902 5.37748 19.5427 4.80211C20.0952 4.22675 20.7561 3.74822 21.5251 3.36654C22.2942 2.98485 23.2143 2.79401 24.2853 2.79401C25.6069 2.79401 26.789 3.11018 27.8314 3.74252C28.874 4.37485 29.6943 5.25785 30.2925 6.3915C30.8907 7.52515 31.1897 8.84965 31.1897 10.365C31.1897 11.9487 30.8081 13.5523 30.0447 15.1759C29.2813 16.7995 28.2473 18.3918 26.9427 19.9527C25.6381 21.5135 24.157 23.0032 22.4992 24.4218C20.8415 25.8402 19.1182 27.1419 17.3295 28.3268C17.1358 28.4635 17.0162 28.5319 16.9706 28.5319C16.925 28.5319 16.8111 28.4635 16.6288 28.3268C14.84 27.1419 13.1168 25.8402 11.459 24.4218C9.80125 23.0032 8.31725 21.5135 7.007 19.9527C5.69675 18.3918 4.65994 16.7995 3.89657 15.1759C3.13321 13.5523 2.75154 11.9487 2.75154 10.365ZM11.5701 17.4062C11.5701 17.5543 11.6271 17.6796 11.741 17.7821C11.8549 17.8847 11.986 17.9359 12.1341 17.9359H16.3895L14.1165 24.003C14.014 24.2764 14.0225 24.4958 14.1422 24.661C14.2618 24.8262 14.4242 24.9117 14.6293 24.9174C14.8343 24.9231 15.028 24.8177 15.2103 24.6011L22.0293 16.0048C22.1774 15.8453 22.2514 15.68 22.2514 15.5091C22.2514 15.3496 22.1945 15.2186 22.0806 15.1161C21.9666 15.0135 21.8299 14.9623 21.6704 14.9623H17.4491L19.688 8.91231C19.7905 8.63887 19.7848 8.41955 19.6708 8.25435C19.5569 8.08913 19.3974 8.00368 19.1923 7.99798C18.9872 7.99229 18.7992 8.09768 18.6283 8.31416L11.7752 16.9106C11.6385 17.0928 11.5701 17.258 11.5701 17.4062Z" fill="#00AA14"/>
</svg>
