<svg width="51" height="33" viewBox="0 0 51 33" fill="none" xmlns="http://www.w3.org/2000/svg">
<path d="M16.7131 0.000638219C15.6643 -0.0117007 14.5908 0.154875 13.4926 0.500365C12.3944 0.845854 11.3426 1.37643 10.3369 2.09208C9.3313 2.80774 8.43982 3.71465 7.66247 4.81282C7.48972 5.03492 7.32006 5.27861 7.15348 5.54389C6.98691 5.80918 6.82342 6.12691 6.66301 6.49708C7.99561 6.73152 9.21409 7.24975 10.3184 8.05178C11.4228 8.85381 12.3019 9.83784 12.9559 11.0039C13.6098 12.1699 13.9368 13.413 13.9368 14.7333C13.9368 15.8438 13.7332 16.8741 13.326 17.8242C14.5476 17.6515 15.5717 17.4263 16.3984 17.1487C17.2251 16.871 17.984 16.5348 18.675 16.1399C20.205 15.2639 21.4975 14.1071 22.5524 12.6696C23.6075 11.2321 24.135 9.48927 24.135 7.44101C24.135 5.86163 23.8018 4.51977 23.1354 3.41543C22.4692 2.3111 21.5746 1.46897 20.4517 0.889041C19.3289 0.309111 18.0827 0.0129772 16.7131 0.000638219ZM17.4349 7.94073C17.2498 8.10113 17.0339 8.17208 16.7871 8.15357C16.5403 8.13507 16.3367 8.02711 16.1763 7.82969C16.0159 7.63227 15.948 7.41325 15.9727 7.17264C15.9974 6.93203 16.1085 6.73152 16.3059 6.57111L19.0267 4.27608C19.2117 4.11567 19.4245 4.0478 19.6652 4.07247C19.9058 4.09716 20.1001 4.20822 20.2482 4.40564C20.4209 4.59072 20.5011 4.80356 20.4887 5.04417C20.4764 5.28478 20.3716 5.48529 20.1741 5.64569L17.4349 7.94073ZM14.0479 32.7419H15.51C16.0776 32.7419 16.5341 32.5939 16.8796 32.2978C17.2251 32.0017 17.3979 31.5698 17.3979 31.0022V18.8051C16.6082 19.0889 15.7753 19.3203 14.8992 19.4992C14.0232 19.6781 13.1039 19.7984 12.1415 19.8602V31.0022C12.1415 31.5698 12.3142 32.0017 12.6597 32.2978C13.0052 32.5939 13.4679 32.7419 14.0479 32.7419ZM34.0739 0.000638219C32.7166 0.0129772 31.4766 0.309111 30.3537 0.889041C29.2309 1.46897 28.3364 2.3111 27.67 3.41543C27.0038 4.51977 26.6706 5.86163 26.6706 7.44101C26.6706 9.48927 27.1981 11.2321 28.253 12.6696C29.308 14.1071 30.5944 15.2639 32.1121 16.1399C32.8154 16.5348 33.5804 16.871 34.4071 17.1487C35.2338 17.4263 36.2579 17.6515 37.4795 17.8242C37.0723 16.8741 36.8686 15.8438 36.8686 14.7333C36.8686 13.413 37.1956 12.1699 37.8496 11.0039C38.5036 9.83784 39.3797 8.85381 40.4778 8.05178C41.576 7.24975 42.7914 6.73152 44.1239 6.49708C43.9635 6.12691 43.8031 5.80918 43.6427 5.54389C43.4823 5.27861 43.3158 5.03492 43.1431 4.81282C42.3534 3.71465 41.4557 2.80774 40.4501 2.09208C39.4445 1.37643 38.3956 0.845854 37.3036 0.500365C36.2117 0.154875 35.1351 -0.0117007 34.0739 0.000638219ZM33.3706 7.94073L30.6313 5.64569C30.434 5.48529 30.3291 5.28478 30.3167 5.04417C30.3044 4.80356 30.3784 4.59072 30.5389 4.40564C30.6869 4.20822 30.8844 4.09716 31.1311 4.07247C31.3779 4.0478 31.5938 4.11567 31.7789 4.27608L34.4996 6.57111C34.6971 6.73152 34.805 6.93203 34.8235 7.17264C34.842 7.41325 34.7711 7.63227 34.6106 7.82969C34.4625 8.02711 34.2651 8.13507 34.0184 8.15357C33.7716 8.17208 33.5557 8.10113 33.3706 7.94073ZM36.7392 32.7419C37.3191 32.7419 37.7818 32.5939 38.1273 32.2978C38.4727 32.0017 38.6454 31.5698 38.6454 31.0022V19.8602C37.683 19.7984 36.7638 19.6781 35.8877 19.4992C35.0117 19.3203 34.185 19.0889 33.4077 18.8051V31.0022C33.4077 31.5698 33.5773 32.0017 33.9166 32.2978C34.256 32.5939 34.7156 32.7419 35.2954 32.7419H36.7392ZM6.73705 20.1007C7.68715 20.1007 8.57555 19.9033 9.40226 19.5085C10.229 19.1136 10.8953 18.5183 11.4012 17.7224C11.9071 16.9265 12.16 15.9302 12.16 14.7333C12.16 13.6598 11.8546 12.6203 11.2438 11.6147C10.6331 10.609 9.80327 9.77923 8.75446 9.12527C7.70565 8.4713 6.52729 8.14432 5.21937 8.14432C4.10886 8.14432 3.16494 8.40036 2.38759 8.91243C1.61023 9.42449 1.01796 10.0846 0.610777 10.8928C0.203592 11.701 0 12.5555 0 13.4562C0 14.7888 0.330066 15.9549 0.990198 16.9543C1.65033 17.9538 2.49554 18.728 3.52584 19.277C4.55614 19.8262 5.62655 20.1007 6.73705 20.1007ZM5.81164 17.2875C5.55252 17.5219 5.20703 17.525 4.77516 17.2967C4.34329 17.0684 3.85591 16.6273 3.31301 15.9734C2.77009 15.3194 2.43077 14.7672 2.29504 14.3169C2.15932 13.8665 2.22101 13.5303 2.48012 13.3082C2.75158 13.0737 3.10016 13.0645 3.52584 13.2804C3.95154 13.4963 4.44202 13.9374 4.99726 14.6037C5.5155 15.2824 5.84557 15.8438 5.98746 16.288C6.12935 16.7322 6.07074 17.0654 5.81164 17.2875ZM44.0685 20.1007C45.179 20.1007 46.2494 19.8262 47.2797 19.277C48.3099 18.728 49.1552 17.9538 49.8153 16.9543C50.4754 15.9549 50.8054 14.7888 50.8054 13.4562C50.8054 12.5555 50.6019 11.701 50.1948 10.8928C49.7875 10.0846 49.1953 9.42449 48.418 8.91243C47.6405 8.40036 46.6966 8.14432 45.5861 8.14432C44.2782 8.14432 43.0999 8.4713 42.051 9.12527C41.0022 9.77923 40.1724 10.609 39.5616 11.6147C38.9508 12.6203 38.6454 13.6598 38.6454 14.7333C38.6454 15.9302 38.8984 16.9265 39.4043 17.7224C39.9102 18.5183 40.5734 19.1136 41.3939 19.5085C42.2145 19.9033 43.106 20.1007 44.0685 20.1007ZM44.9938 17.2875C44.7348 17.0654 44.6731 16.7322 44.8088 16.288C44.9445 15.8438 45.2776 15.2824 45.8082 14.6037C46.3635 13.9374 46.854 13.4963 47.2797 13.2804C47.7053 13.0645 48.0539 13.0737 48.3253 13.3082C48.5844 13.5303 48.6431 13.8665 48.5012 14.3169C48.3593 14.7672 48.0231 15.3194 47.4925 15.9734C46.9372 16.6273 46.4467 17.0684 46.021 17.2967C45.5954 17.525 45.2529 17.5219 44.9938 17.2875Z" fill="#00AA14"/>
</svg>
