<svg width="58" height="34" viewBox="0 0 58 34" fill="none" xmlns="http://www.w3.org/2000/svg">
<path fill-rule="evenodd" clip-rule="evenodd" d="M10.5576 0.679688H12.8958V2.67969H11.4424L10.4899 3.72736L9.01006 2.38201L10.5576 0.679688ZM16.6875 0.679688H20.4792V2.67969H16.6875V0.679688ZM24.2708 0.679688H28.0625V2.67969H24.2708V0.679688ZM31.8542 0.679688H35.6458V2.67969H31.8542V0.679688ZM39.4375 0.679688H43.2292V2.67969H39.4375V0.679688ZM47.0208 0.679688H50.8125V2.67969H47.0208V0.679688ZM54.6042 0.679688H57.5V3.58594H55.5V2.67969H54.6042V0.679688ZM4.01006 7.88201L6.51006 5.13201L7.98994 6.47736L5.48994 9.22736L4.01006 7.88201ZM57.5 7.39844V11.2109H55.5V7.39844H57.5ZM1.51006 10.632L2.98994 11.9774L2 13.0663V15.1172H0V12.2931L1.51006 10.632ZM57.5 15.0234V18.8359H55.5V15.0234H57.5ZM0 24.8672V19.9922H2V24.8672H0ZM57.5 22.6484V26.4609H55.5V22.6484H57.5ZM0 29.7422H2V31.1797H2.98214V33.1797H0V29.7422ZM57.5 30.2734V33.1797H54.5179V31.1797H55.5V30.2734H57.5ZM10.9107 33.1797H6.94643V31.1797H10.9107V33.1797ZM18.8393 33.1797H14.875V31.1797H18.8393V33.1797ZM26.7679 33.1797H22.8036V31.1797H26.7679V33.1797ZM34.6964 33.1797H30.7321V31.1797H34.6964V33.1797ZM42.625 33.1797H38.6607V31.1797H42.625V33.1797ZM50.5536 33.1797H46.5893V31.1797H50.5536V33.1797Z" fill="white"/>
<path d="M19.3438 18.703C19.3438 17.9452 19.1875 17.2655 18.8672 16.6639C18.5469 16.0624 18.0938 15.5936 17.5078 15.2499C16.9219 14.9061 16.25 14.7343 15.4922 14.7343C14.9453 14.7343 14.4297 14.8358 13.9531 15.0311C13.4766 15.2264 13.0625 15.4999 12.7188 15.8514C12.375 16.203 12.1016 16.6327 11.9062 17.1327C11.7109 17.6327 11.6094 18.1796 11.6094 18.7655C11.6094 19.5624 11.7812 20.2733 12.1328 20.8905C12.4844 21.5077 12.9609 21.9843 13.5703 22.3124C14.1797 22.6405 14.8672 22.8046 15.625 22.8046C16.375 22.8046 17.0391 22.6718 17.6094 22.4061C18.1797 22.1405 18.6406 21.7811 18.9922 21.3358L17.6328 20.0702C17.1406 20.6639 16.5156 20.9608 15.7578 20.953C15.2578 20.9452 14.8281 20.8124 14.4766 20.5468C14.125 20.2811 13.8828 19.9139 13.7578 19.453H19.2344C19.2734 19.3202 19.2891 19.0702 19.2891 18.703H19.3438ZM15.5234 16.578C15.9688 16.578 16.3359 16.703 16.625 16.9452C16.9141 17.1874 17.1094 17.5233 17.2188 17.953H13.7734C13.8906 17.5077 14.1016 17.1718 14.4141 16.9374C14.7266 16.703 15.0938 16.5858 15.5234 16.5858V16.578Z" fill="white"/>
<path d="M24.6172 22.8124C25 22.8124 25.375 22.7733 25.7422 22.6952C26.1094 22.6171 26.4688 22.4843 26.8203 22.2968C27.1719 22.1093 27.4766 21.8827 27.7422 21.6171C28.0078 21.3514 28.2188 21.0233 28.3828 20.6249C28.5469 20.2264 28.625 19.7889 28.625 19.3124C28.625 18.8436 28.5547 18.4296 28.4062 18.078C28.1719 17.5077 27.7031 17.0311 26.9922 16.6483C26.6875 16.4843 26.0625 16.2186 25.1172 15.8514C24.8203 15.7343 24.5859 15.6405 24.4141 15.5624C24.2422 15.4843 24.0703 15.3983 23.8984 15.3046C23.7266 15.2108 23.5938 15.1171 23.5078 15.0233C23.4219 14.9296 23.3516 14.828 23.2969 14.7108C23.2422 14.5936 23.2188 14.4686 23.2188 14.328C23.2266 13.9764 23.3516 13.6952 23.6016 13.4921C23.8516 13.2889 24.1797 13.1874 24.5781 13.1874C25.3203 13.1874 26.1484 13.5624 27.0625 14.3046L28.3594 12.6093C27.1797 11.6405 25.9062 11.1639 24.5312 11.1796C23.8594 11.1874 23.2422 11.3358 22.6875 11.6171C22.1328 11.8983 21.6953 12.2889 21.375 12.7811C21.0547 13.2733 20.8906 13.8202 20.8906 14.4218C20.8906 14.7186 20.9219 14.9999 20.9922 15.2655C21.0625 15.5311 21.1562 15.7655 21.2656 15.9686C21.375 16.1718 21.5234 16.3593 21.7031 16.5389C21.8828 16.7186 22.0625 16.8749 22.2422 16.9999C22.4219 17.1249 22.6406 17.2499 22.8906 17.3749C23.1406 17.4999 23.375 17.6093 23.5859 17.6952C23.7969 17.7811 24.0391 17.8749 24.3125 17.9764C24.6172 18.078 24.8672 18.1718 25.0547 18.2499C25.2422 18.328 25.4219 18.4139 25.5938 18.5077C25.7656 18.6014 25.8984 18.703 25.9922 18.8046C26.0859 18.9061 26.1562 19.0233 26.2109 19.1561C26.2656 19.2889 26.2891 19.4374 26.2891 19.6014C26.2891 19.8436 26.2266 20.0546 26.1094 20.2343C25.9922 20.4139 25.8047 20.5546 25.5547 20.6561C25.3047 20.7577 25 20.8124 24.6484 20.8124C24.4219 20.8124 24.1875 20.7811 23.9453 20.7264C23.7031 20.6718 23.4609 20.5858 23.2188 20.4686C22.9766 20.3514 22.7344 20.203 22.4922 20.0233C22.25 19.8436 22.0234 19.6327 21.8125 19.3905L20.4609 21.0546C21.0469 21.6561 21.6953 22.1014 22.4062 22.3983C23.1172 22.6952 23.8516 22.8436 24.6094 22.8436L24.6172 22.8124Z" fill="white"/>
<path d="M30.6172 22.6796H32.8828V11.3124H30.6172V22.6796Z" fill="white"/>
<path d="M44.7109 11.3124L41.2422 17.7811H41.2109L37.7188 11.3124H35.4531V22.6796H37.6875V15.6171H37.7109L40.4844 20.5233H41.9453L44.7188 15.6171H44.7422V22.6796H46.9766V11.3124H44.7109Z" fill="white"/>
</svg>
